<svg xmlns="http://www.w3.org/2000/svg" viewBox="0 0 1643.79 1643.79"><path d="M821.89 1514.54c-93.51 0-184.22-18.31-269.61-54.43-82.48-34.89-156.55-84.83-220.16-148.44-63.61-63.61-113.55-137.68-148.44-220.17-36.12-85.39-54.43-176.1-54.43-269.61 0-93.51 18.31-184.22 54.43-269.61 34.89-82.48 84.83-156.55 148.44-220.16 63.61-63.61 137.68-113.55 220.16-148.44 85.39-36.12 176.1-54.43 269.61-54.43 93.51 0 184.22 18.31 269.61 54.43 82.48 34.89 156.55 84.83 220.17 148.44 63.61 63.61 113.55 137.68 148.44 220.16 36.12 85.39 54.43 176.1 54.43 269.61 0 93.51-18.31 184.22-54.43 269.61-34.89 82.48-84.83 156.55-148.44 220.17s-137.68 113.55-220.17 148.44c-85.39 36.11-176.1 54.43-269.61 54.43zm0-1380.29c-92.83 0-182.89 18.18-267.66 54.04-81.88 34.63-155.42 84.22-218.58 147.37S222.92 472.35 188.28 554.23c-35.86 84.77-54.04 174.83-54.04 267.66 0 92.83 18.18 182.89 54.04 267.66 34.63 81.88 84.22 155.42 147.37 218.58 63.15 63.15 136.69 112.73 218.58 147.37 84.77 35.86 174.83 54.04 267.66 54.04 92.83 0 182.89-18.18 267.66-54.04 81.88-34.63 155.42-84.22 218.58-147.37 63.15-63.15 112.73-136.69 147.37-218.58 35.86-84.77 54.04-174.83 54.04-267.66 0-92.83-18.18-182.89-54.04-267.66-34.63-81.88-84.22-155.42-147.37-218.58-63.15-63.15-136.69-112.73-218.58-147.37-84.77-35.85-174.82-54.03-267.66-54.03z"/><path class="st0" d="M821.89 1441.27c-54.59 0-108.77-7.12-161.03-21.15l-2.42-.65 16.75-62.22c-91.27-24.96-175.18-73.37-242.94-140.19l-45.43 45.67-1.77-1.76c-77.77-77.38-133.71-174-161.75-279.42l-.64-2.41 62.26-16.61c-11.94-45.7-17.99-93-17.99-140.63 0-47.37 5.98-94.42 17.79-139.88l-62.28-16.52.64-2.42c27.9-105.46 83.69-202.16 161.36-279.65l1.77-1.77 45.5 45.6c67.67-66.91 151.51-115.45 242.75-140.53l-16.83-62.2 2.42-.65c52.51-14.18 106.97-21.37 161.87-21.37 54.59 0 108.77 7.11 161.03 21.15l2.42.65-16.75 62.22c91.27 24.96 175.18 73.37 242.94 140.19l45.43-45.67 1.77 1.76c77.77 77.38 133.7 174 161.75 279.42l.64 2.41-62.26 16.6c11.93 45.7 17.98 93 17.98 140.63 0 47.37-5.98 94.42-17.79 139.88l62.28 16.52-.64 2.42c-27.9 105.46-83.69 202.17-161.36 279.65l-1.77 1.77-45.5-45.6c-67.67 66.91-151.51 115.45-242.75 140.53l16.83 62.2-2.42.65c-52.5 14.19-106.96 21.38-161.86 21.38zm-157.31-25.33c51.09 13.49 104 20.33 157.32 20.33 53.62 0 106.81-6.91 158.15-20.55l-16.83-62.18 2.42-.65c92.13-24.88 176.75-73.86 244.7-141.66l1.77-1.77 45.49 45.59c75.53-75.97 129.98-170.33 157.64-273.21l-62.27-16.51.64-2.42c12.12-45.8 18.26-93.24 18.26-141.02 0-48.04-6.21-95.74-18.45-141.76l-.64-2.41 62.25-16.6c-27.81-102.83-82.39-197.11-158.03-272.98l-45.43 45.66-1.77-1.76c-68.05-67.7-152.73-116.57-244.9-141.32l-2.42-.65 16.75-62.21c-51.09-13.49-104-20.33-157.32-20.33-53.62 0-106.81 6.91-158.15 20.55l16.83 62.18-2.42.65c-92.13 24.88-176.75 73.86-244.7 141.66l-1.77 1.77-45.49-45.6c-75.53 75.97-129.98 170.33-157.64 273.2l62.27 16.52-.64 2.42c-12.12 45.8-18.26 93.25-18.26 141.02 0 48.04 6.21 95.74 18.45 141.76l.64 2.41-62.25 16.6c27.81 102.83 82.39 197.11 158.03 272.98l45.43-45.66 1.77 1.76c68.05 67.7 152.73 116.57 244.9 141.32l2.42.65-16.75 62.22z"/><path d="M819.39 131.75h5v73.27h-5zM222.948 478.995l2.5-4.33 63.367 36.585-2.5 4.33zm.002 685.778l63.367-36.585 2.5 4.33-63.367 36.585zm596.44 273.997h5v73.27h-5zm535.546-306.171l2.5-4.33 63.367 36.584-2.5 4.33zm-.019-621.363l63.367-36.585 2.5 4.33-63.367 36.585zM821.89 1287.22c-33.76 0-67.45-3.64-100.15-10.81l-2.44-.54 52.96-240.37c-42.47-9.82-80.59-31.84-110.52-63.85L480.1 1137.67l-1.69-1.84c-45.4-49.64-80.06-109.6-100.25-173.4l-.75-2.38 2.38-.75 232.27-73.56c-6.27-20.63-9.45-42.1-9.45-63.83s3.18-43.2 9.45-63.83l-234.65-74.31.75-2.38c20.19-63.8 54.85-123.76 100.25-173.4l1.69-1.84 181.63 166.01c29.93-32.01 68.05-54.03 110.52-63.85l-52.95-240.4 2.44-.54c32.7-7.17 66.39-10.81 100.15-10.81s67.45 3.64 100.15 10.81l2.44.54-52.96 240.37c42.47 9.82 80.59 31.84 110.52 63.85l181.63-166.01 1.69 1.84c45.4 49.64 80.06 109.6 100.25 173.4l.75 2.38-234.65 74.31c6.27 20.63 9.45 42.1 9.45 63.83s-3.18 43.2-9.45 63.83l234.65 74.31-.75 2.38c-20.19 63.8-54.85 123.76-100.25 173.4l-1.69 1.84-181.62-165.98c-29.93 32.01-68.05 54.03-110.52 63.85l52.96 240.37-2.44.54c-32.7 7.17-66.4 10.8-100.16 10.8zm-96.63-15.16c31.58 6.74 64.08 10.16 96.63 10.16 32.56 0 65.06-3.42 96.63-10.16l-52.96-240.35 2.44-.54c43.25-9.49 82-31.87 112.04-64.73l1.69-1.84 181.62 166c43.52-48.12 76.91-105.87 96.73-167.3l-234.63-74.31.75-2.38c6.61-20.88 9.96-42.65 9.96-64.71s-3.35-43.83-9.96-64.71l-.75-2.38 234.63-74.31c-19.82-61.43-53.21-119.18-96.73-167.3l-181.62 166-1.69-1.84c-30.05-32.86-68.79-55.24-112.04-64.73l-2.44-.54 52.96-240.35c-31.58-6.74-64.08-10.16-96.63-10.16-32.56 0-65.06 3.42-96.63 10.16l52.96 240.35-2.44.54c-43.25 9.49-82 31.87-112.04 64.73l-1.69 1.84-181.62-166c-43.52 48.12-76.91 105.87-96.73 167.3l234.63 74.31-.75 2.38c-6.61 20.88-9.95 42.65-9.95 64.71s3.35 43.83 9.95 64.71l.75 2.38-2.38.75-232.25 73.55c19.82 61.43 53.21 119.18 96.73 167.3l181.62-166 1.69 1.84c30.05 32.86 68.79 55.24 112.04 64.73l2.44.54-52.96 240.36z"/></svg>
