<svg id="Layer_1" data-name="Layer 1" xmlns="http://www.w3.org/2000/svg" viewBox="0 0 172.61 172.61"><defs><style>.cls-1{fill:#fff}</style></defs><path class="cls-1" d="M121.47 102l-1.92-3.35L86.46 41 73.39 63.77l-1.91 3.34-33 57.41h96zm-6-1.62L90 111.19l15.83-18.12 9.57 7.23zM86.46 50l22.15 38.5.48.83 1.41 2.45-2.14-1.62L106 88.4 77 66.47zM75 69.84l22.3 16.83-23.72-4.73zm28.13 21.31L83.19 114l-9.91-28.8zm-38 28.93h-19l21.72-37.74.79-1.34 1.49-2.59-.33 2.81-.35 2.91zm3.88 0l3.3-27.62 7.87 22.9-11.09 4.72zm11.55 0h-1.62l2.52-1.08 2.7-1.15 33.2-14.14 9.4 16.36H80.58z"/><path class="cls-1" d="M164.61 8v156.61H8V8h156.61m8-8H0v172.61h172.61V0z"/></svg>