<?xml version="1.0" standalone="no"?>
<!DOCTYPE svg PUBLIC "-//W3C//DTD SVG 20010904//EN"
 "http://www.w3.org/TR/2001/REC-SVG-20010904/DTD/svg10.dtd">
<svg version="1.0" xmlns="http://www.w3.org/2000/svg"
 width="256.000000pt" height="256.000000pt" viewBox="0 0 256.000000 256.000000"
 preserveAspectRatio="xMidYMid meet">
<metadata>
Created by potrace 1.11, written by Peter Selinger 2001-2013
</metadata>
<g transform="translate(0.000000,256.000000) scale(0.100000,-0.100000)"
fill="#000000" stroke="none">
<path d="M0 1280 l0 -1280 1280 0 1280 0 0 1280 0 1280 -1280 0 -1280 0 0
-1280z m1223 933 c-13 -2 -33 -2 -45 0 -13 2 -3 4 22 4 25 0 35 -2 23 -4z m72
-43 c0 -27 -4 -50 -10 -50 -5 0 -10 23 -10 50 0 28 5 50 10 50 6 0 10 -22 10
-50z m93 43 c-10 -2 -26 -2 -35 0 -10 3 -2 5 17 5 19 0 27 -2 18 -5z m-251 -9
c-3 -3 -12 -4 -19 -1 -8 3 -5 6 6 6 11 1 17 -2 13 -5z m-100 -20 c-3 -3 -12
-4 -19 -1 -8 3 -5 6 6 6 11 1 17 -2 13 -5z m-47 -13 c-8 -5 -26 -11 -40 -15
-21 -5 -20 -3 5 9 32 15 60 20 35 6z m610 -1 c18 -12 2 -12 -25 0 -13 6 -15 9
-5 9 8 0 22 -4 30 -9z m50 -20 c8 -5 11 -10 5 -10 -5 0 -17 5 -25 10 -8 5 -10
10 -5 10 6 0 17 -5 25 -10z m-760 -15 c0 -2 -22 -16 -50 -30 -27 -14 -50 -23
-50 -20 0 2 21 16 48 29 53 28 52 28 52 21z m862 -34 c137 -80 222 -157 310
-281 45 -63 103 -170 93 -170 -2 0 -14 18 -26 41 -17 33 -24 40 -42 35 -21 -5
-21 -4 -3 9 18 13 16 17 -27 77 -86 120 -186 211 -313 283 -43 25 -74 45 -69
45 6 0 40 -18 77 -39z m-524 12 c-10 -2 -28 -2 -40 0 -13 2 -5 4 17 4 22 1 32
-1 23 -4z m160 0 c-10 -2 -28 -2 -40 0 -13 2 -5 4 17 4 22 1 32 -1 23 -4z
m-245 -10 c-7 -2 -19 -2 -25 0 -7 3 -2 5 12 5 14 0 19 -2 13 -5z m310 0 c-7
-2 -19 -2 -25 0 -7 3 -2 5 12 5 14 0 19 -2 13 -5z m-366 -10 c-14 -4 -17 -11
-13 -36 6 -29 5 -30 -4 -8 -13 31 -6 51 17 50 17 -1 17 -2 0 -6z m418 -3 c8
-13 -5 -13 -25 0 -13 8 -13 10 2 10 9 0 20 -4 23 -10z m-725 -14 c0 -2 -34
-29 -75 -61 -83 -64 -142 -124 -200 -209 -37 -54 -38 -57 -19 -71 18 -14 18
-14 -2 -9 -15 4 -27 -1 -38 -17 -9 -13 -16 -19 -16 -14 0 21 99 163 156 224
63 69 194 175 194 157z m717 -28 c-3 -8 -6 -5 -6 6 -1 11 2 17 5 13 3 -3 4
-12 1 -19z m56 -62 c27 -10 47 -20 45 -22 -2 -2 -30 6 -61 18 -36 13 -57 27
-57 36 0 14 1 14 13 1 6 -9 34 -24 60 -33z m-463 25 c0 -8 -111 -53 -118 -47
-2 2 18 12 45 22 26 9 52 21 58 26 12 10 15 10 15 -1z m-184 -86 c-32 -20 -80
-54 -107 -76 l-48 -41 -35 27 -35 27 -33 -38 c-46 -52 -76 -97 -120 -179 -42
-79 -52 -82 -12 -4 24 49 24 51 7 64 -17 13 -17 14 2 9 17 -4 34 11 83 75 35
45 68 81 74 81 7 0 25 -12 40 -27 l28 -27 28 27 c33 31 162 117 177 117 5 0
-16 -16 -49 -35z m795 -16 c41 -28 84 -60 97 -72 l22 -21 28 27 c16 15 32 27
38 27 9 0 87 -93 119 -143 14 -22 20 -25 32 -16 7 7 15 10 18 7 2 -2 -4 -11
-14 -20 -18 -16 -21 -13 -59 45 -22 34 -54 75 -71 91 l-31 30 -30 -29 -29 -28
-43 35 c-24 19 -72 54 -107 77 -35 22 -60 41 -54 41 5 0 43 -23 84 -51z m-373
-6 c-21 -2 -57 -2 -80 0 -24 2 -7 4 37 4 44 0 63 -2 43 -4z m-163 -13 c-3 -5
-11 -10 -16 -10 -6 0 -7 5 -4 10 3 6 11 10 16 10 6 0 7 -4 4 -10z m255 0 c0
-5 -2 -10 -4 -10 -3 0 -8 5 -11 10 -3 6 -1 10 4 10 6 0 11 -4 11 -10z m-263
-42 c-3 -8 -6 -5 -6 6 -1 11 2 17 5 13 3 -3 4 -12 1 -19z m250 -40 c-3 -8 -6
-5 -6 6 -1 11 2 17 5 13 3 -3 4 -12 1 -19z m-13 -62 c-3 -21 -8 -35 -11 -32
-2 2 -1 20 3 40 3 21 8 35 11 32 2 -2 1 -20 -3 -40z m-217 2 c-3 -7 -5 -2 -5
12 0 14 2 19 5 13 2 -7 2 -19 0 -25z m10 -40 c-3 -8 -6 -5 -6 6 -1 11 2 17 5
13 3 -3 4 -12 1 -19z m-309 -60 c31 -29 85 -79 119 -111 l61 -59 36 27 c20 15
36 25 36 22 0 -2 -16 -17 -35 -31 l-35 -27 -121 111 c-139 127 -133 126 -191
23 -33 -58 -48 -72 -22 -20 21 42 77 116 87 117 5 0 34 -23 65 -52z m499 30
c-3 -8 -6 -5 -6 6 -1 11 2 17 5 13 3 -3 4 -12 1 -19z m413 -15 c39 -48 104
-178 97 -195 -4 -13 -107 -51 -115 -43 -2 2 21 11 52 21 31 10 56 23 56 29 0
22 -68 149 -99 185 l-29 35 -54 -50 -53 -50 50 53 c27 28 52 52 56 52 4 0 22
-17 39 -37z m-582 -38 c0 -16 -2 -15 -8 5 -4 14 -8 34 -8 45 0 16 2 15 8 -5 4
-14 8 -34 8 -45z m852 1 c0 -12 -5 -7 -19 24 -11 24 -11 24 3 6 9 -11 16 -24
16 -30z m-693 2 c-3 -7 -5 -2 -5 12 0 14 2 19 5 13 2 -7 2 -19 0 -25z m-966
-15 c-12 -20 -14 -14 -5 12 4 9 9 14 11 11 3 -2 0 -13 -6 -23z m1779 -18 c0
-5 -5 -3 -10 5 -5 8 -10 20 -10 25 0 6 5 3 10 -5 5 -8 10 -19 10 -25z m-91
-45 c0 -8 -6 0 -14 19 -8 18 -15 36 -15 40 1 13 29 -45 29 -59z m-876 10 c-4
-4 -19 -10 -33 -13 -23 -6 -23 -5 3 5 16 7 27 20 28 32 1 19 2 19 6 2 3 -10 1
-22 -4 -26z m365 -26 c-73 -71 -72 -71 -133 -18 -34 30 -16 22 31 -13 l31 -23
64 60 c86 80 91 76 7 -6z m-203 18 c-3 -3 -11 0 -18 7 -9 10 -8 11 6 5 10 -3
15 -9 12 -12z m-895 -26 c-5 -15 -7 -33 -4 -39 5 -9 4 -9 -5 -1 -8 8 -8 18 0
43 6 17 13 30 15 28 3 -2 0 -16 -6 -31z m216 -21 c-17 -39 -19 -36 52 -60 29
-9 52 -19 49 -21 -4 -4 -127 35 -127 41 0 9 31 75 35 75 3 0 -1 -16 -9 -35z
m1511 -7 c-3 -8 -6 -5 -6 6 -1 11 2 17 5 13 3 -3 4 -12 1 -19z m-102 -8 c-3
-5 -11 -10 -16 -10 -6 0 -7 5 -4 10 3 6 11 10 16 10 6 0 7 -4 4 -10z m-1748
-32 c-3 -8 -6 -5 -6 6 -1 11 2 17 5 13 3 -3 4 -12 1 -19z m1691 15 c-10 -2
-18 -14 -19 -26 0 -12 -3 -16 -6 -9 -8 20 5 42 24 41 17 -1 17 -2 1 -6z
m-1501 -35 c-3 -7 -5 -2 -5 12 0 14 2 19 5 13 2 -7 2 -19 0 -25z m-200 -40
c-3 -7 -5 -2 -5 12 0 14 2 19 5 13 2 -7 2 -19 0 -25z m190 -15 c-3 -10 -5 -4
-5 12 0 17 2 24 5 18 2 -7 2 -21 0 -30z m382 9 c41 -15 76 -34 79 -42 3 -11 1
-12 -5 -2 -5 6 -47 25 -94 41 -46 16 -77 30 -69 30 8 0 48 -12 89 -27z m749
-3 c-69 -24 -88 -35 -91 -52 -4 -20 -4 -19 -6 3 -1 24 6 28 77 52 42 14 84 26
92 26 8 0 -24 -13 -72 -29z m559 -16 c-3 -10 -5 -4 -5 12 0 17 2 24 5 18 2 -7
2 -21 0 -30z m-190 -5 c-3 -8 -6 -5 -6 6 -1 11 2 17 5 13 3 -3 4 -12 1 -19z
m-1510 -145 c-2 -27 -3 -5 -3 47 0 52 1 74 3 48 2 -27 2 -69 0 -95z m-190 -6
c-2 -23 -3 -1 -3 48 0 50 1 68 3 42 2 -26 2 -67 0 -90z m1710 26 c-2 -21 -4
-6 -4 32 0 39 2 55 4 38 2 -18 2 -50 0 -70z m190 10 c-2 -16 -4 -5 -4 22 0 28
2 40 4 28 2 -13 2 -35 0 -50z m-650 5 c-3 -7 -5 -2 -5 12 0 14 2 19 5 13 2 -7
2 -19 0 -25z m21 -87 c15 -5 21 -10 14 -10 -26 -2 -52 20 -51 42 l2 22 4 -22
c2 -12 16 -26 31 -32z m-611 14 c-4 -8 -12 -15 -19 -14 -10 0 -10 2 0 6 6 2
12 12 12 21 0 8 3 13 6 9 4 -3 4 -13 1 -22z m-460 -52 c-3 -10 -5 -4 -5 12 0
17 2 24 5 18 2 -7 2 -21 0 -30z m1690 15 c-3 -8 -6 -5 -6 6 -1 11 2 17 5 13 3
-3 4 -12 1 -19z m-1880 -30 c-3 -7 -5 -2 -5 12 0 14 2 19 5 13 2 -7 2 -19 0
-25z m538 22 c-27 -12 -43 -12 -25 0 8 5 22 9 30 9 10 0 8 -3 -5 -9z m955 -41
c23 -7 44 -19 47 -26 8 -19 -59 -150 -100 -198 l-34 -39 -116 104 c-63 58
-116 109 -116 114 -1 5 51 -40 115 -100 l117 -108 29 34 c30 36 98 164 98 185
0 6 -25 19 -55 29 -30 9 -55 20 -55 23 0 3 6 3 14 0 8 -3 33 -11 56 -18z
m-1293 -21 c-3 -7 -5 -2 -5 12 0 14 2 19 5 13 2 -7 2 -19 0 -25z m1480 0 c-3
-7 -5 -2 -5 12 0 14 2 19 5 13 2 -7 2 -19 0 -25z m-1670 -10 c-3 -8 -6 -5 -6
6 -1 11 2 17 5 13 3 -3 4 -12 1 -19z m343 12 c-8 -5 -19 -10 -25 -10 -5 0 -3
5 5 10 8 5 20 10 25 10 6 0 3 -5 -5 -10z m406 -42 c24 -17 44 -33 44 -35 0 -6
-19 6 -57 35 l-32 24 -120 -111 c-66 -61 -124 -111 -128 -111 -20 1 -134 189
-133 217 1 4 18 -26 40 -67 21 -41 51 -90 67 -108 l28 -34 120 111 c66 60 122
110 123 111 2 0 24 -14 48 -32z m-629 -11 c1 -29 1 -30 -8 -9 -5 13 -7 28 -3
33 8 14 9 12 11 -24z m997 12 c-10 -11 -28 -25 -39 -31 -11 -6 -4 4 15 20 41
36 51 41 24 11z m733 -11 c-3 -8 -6 -5 -6 6 -1 11 2 17 5 13 3 -3 4 -12 1 -19z
m-990 -69 c1 -19 1 -20 -4 -4 -3 11 -10 24 -17 28 -7 6 -6 7 4 4 8 -2 16 -14
17 -28z m163 27 c0 -2 -7 -7 -16 -10 -8 -3 -12 -2 -9 4 6 10 25 14 25 6z m691
-43 c-12 -20 -14 -14 -5 12 4 9 9 14 11 11 3 -2 0 -13 -6 -23z m-1483 -153
l24 -35 -31 35 c-17 19 -31 38 -31 43 0 4 -12 1 -27 -7 -57 -31 -57 -31 -37
-62 62 -100 163 -202 294 -297 14 -10 18 -15 10 -11 -8 4 -45 29 -83 57 -86
63 -181 167 -235 257 -45 75 -53 96 -24 60 18 -22 19 -22 53 -5 19 10 35 19
37 20 2 2 -8 26 -22 54 -40 78 -30 75 12 -4 20 -39 48 -86 60 -105z m1583 133
c-12 -20 -14 -14 -5 12 4 9 9 14 11 11 3 -2 0 -13 -6 -23z m-967 -37 c-3 -21
-8 -35 -11 -32 -2 2 -1 20 3 40 3 21 8 35 11 32 2 -2 1 -20 -3 -40z m-784 -1
c0 -5 -5 -3 -10 5 -5 8 -10 20 -10 25 0 6 5 3 10 -5 5 -8 10 -19 10 -25z m947
3 c-3 -7 -5 -2 -5 12 0 14 2 19 5 13 2 -7 2 -19 0 -25z m674 -11 c-10 -9 -11
-8 -5 6 3 10 9 15 12 12 3 -3 0 -11 -7 -18z m84 -55 c-45 -86 -148 -216 -212
-267 -37 -30 -32 -23 24 33 40 40 93 101 119 137 45 63 46 67 28 81 -18 14
-18 15 3 9 18 -5 26 1 43 34 11 23 23 41 26 41 3 0 -11 -31 -31 -68z m-748 26
c-3 -8 -6 -5 -6 6 -1 11 2 17 5 13 3 -3 4 -12 1 -19z m683 -26 c0 -1 -8 2 -19
7 -15 9 -24 2 -54 -42 -20 -29 -52 -68 -72 -87 l-35 -34 -30 29 c-24 23 -32
26 -45 15 -8 -7 -15 -8 -15 -2 0 31 54 16 82 -23 10 -14 51 28 104 106 44 64
47 66 65 51 10 -9 19 -18 19 -20z m-873 -4 c-3 -8 -6 -5 -6 6 -1 11 2 17 5 13
3 -3 4 -12 1 -19z m200 -10 c-3 -8 -6 -5 -6 6 -1 11 2 17 5 13 3 -3 4 -12 1
-19z m-210 -30 c-3 -8 -6 -5 -6 6 -1 11 2 17 5 13 3 -3 4 -12 1 -19z m231 -53
c0 -16 -2 -15 -8 5 -4 14 -8 34 -8 45 0 16 2 15 8 -5 4 -14 8 -34 8 -45z
m-690 -19 l33 26 42 -35 c23 -19 71 -53 106 -76 35 -22 61 -41 56 -41 -14 0
-109 61 -158 103 l-48 40 -28 -27 c-39 -38 -39 -38 -100 39 -8 11 2 3 24 -17
l40 -37 33 25z m439 -28 c-3 -8 -6 -5 -6 6 -1 11 2 17 5 13 3 -3 4 -12 1 -19z
m591 -12 c-35 -31 -138 -93 -138 -83 0 3 24 19 53 35 28 17 66 42 82 56 44 37
46 31 3 -8z m-578 -16 c13 -8 13 -10 -2 -10 -9 0 -20 5 -23 10 -8 13 5 13 25
0z m250 0 c0 -5 -8 -10 -17 -10 -15 0 -16 2 -3 10 19 12 20 12 20 0z m-102
-17 c-15 -2 -42 -2 -60 0 -18 2 -6 4 27 4 33 0 48 -2 33 -4z m-270 -80 c23 -8
42 -19 42 -23 0 -8 -19 -1 -90 34 -36 17 -27 15 48 -11z m522 10 c-19 -8 -45
-19 -58 -24 -18 -7 -21 -14 -17 -36 4 -23 4 -24 -4 -8 -17 35 -12 42 42 63 60
24 89 28 37 5z m280 -59 c-14 -16 -137 -90 -167 -100 -10 -3 11 11 47 32 36
20 79 48 95 61 35 27 43 29 25 7z m-773 -16 c-3 -8 -6 -5 -6 6 -1 11 2 17 5
13 3 -3 4 -12 1 -19z m13 -41 c11 -5 9 -6 -4 -4 -11 1 -21 9 -23 17 -3 10 -2
11 4 4 4 -6 15 -14 23 -17z m410 3 c-24 -15 -36 -11 -14 4 10 8 21 12 24 10 2
-3 -2 -9 -10 -14z m-604 -48 c-5 -4 -86 36 -86 43 0 3 20 -5 45 -17 24 -12 43
-23 41 -26z m257 31 c-7 -2 -19 -2 -25 0 -7 3 -2 5 12 5 14 0 19 -2 13 -5z
m290 0 c-7 -2 -19 -2 -25 0 -7 3 -2 5 12 5 14 0 19 -2 13 -5z m-100 -10 l-53
-4 0 -44 0 -44 53 -4 c28 -2 0 -3 -63 -3 -63 0 -89 1 -57 3 l58 4 -3 42 -3 42
-55 6 c-37 4 -17 6 60 6 63 -1 91 -2 63 -4z m-403 -33 c8 -5 11 -10 5 -10 -5
0 -17 5 -25 10 -8 5 -10 10 -5 10 6 0 17 -5 25 -10z m710 0 c-8 -5 -19 -10
-25 -10 -5 0 -3 5 5 10 8 5 20 10 25 10 6 0 3 -5 -5 -10z m-103 -36 c-3 -3
-12 -4 -19 -1 -8 3 -5 6 6 6 11 1 17 -2 13 -5z m-470 -10 c-3 -3 -12 -4 -19
-1 -8 3 -5 6 6 6 11 1 17 -2 13 -5z"/>
</g>
</svg>
